<?xml version="1.0" encoding="utf-8"?><svg xmlns="http://www.w3.org/2000/svg" xmlns:xlink="http://www.w3.org/1999/xlink"><symbol viewBox="0 0 24 24" id="arrow-next" xmlns="http://www.w3.org/2000/svg"><path d="M7.417 22A.426.426 0 017 21.566c0-.116.044-.227.122-.309L15.994 12 7.122 2.743a.449.449 0 010-.615.405.405 0 01.59 0l9.166 9.565a.448.448 0 010 .614l-9.166 9.565a.408.408 0 01-.295.128z"/></symbol><symbol viewBox="0 0 24 24" id="arrow-prev" xmlns="http://www.w3.org/2000/svg"><path d="M16.583 22c.23 0 .417-.194.417-.434a.445.445 0 00-.122-.309L8.006 12l8.872-9.257a.449.449 0 000-.615.405.405 0 00-.59 0l-9.166 9.565a.448.448 0 000 .614l9.166 9.565a.408.408 0 00.295.128z"/></symbol><symbol viewBox="0 0 24 24" id="arrow-right-top" xmlns="http://www.w3.org/2000/svg"><path d="M21 1h2v22h-2z"/><path d="M21.506 1l1.499 1.5L2.499 23.004l-1.5-1.499z"/><path d="M1 3V1h22v2z"/></symbol><symbol viewBox="0 0 24 24" id="download" xmlns="http://www.w3.org/2000/svg"><g clip-path="url(#clip0_136_251)"><path d="M19.209 13.055L12 20.263l-7.209-7.208 1.326-1.326 4.946 4.945V0h1.874v16.674l4.946-4.945 1.326 1.326zM24 22.125H0V24h24v-1.875z"/></g></symbol><symbol viewBox="0 0 24 24" id="facebook" xmlns="http://www.w3.org/2000/svg"><path d="M17.981 0H6C2.705 0 0 2.705 0 6.02V18c0 3.295 2.705 6 6 6h11.981C21.295 24 24 21.295 24 17.981V6.019C24 2.705 21.295 0 17.981 0zm-2.762 12h-2.267v7.429h-2.857V12H8.571V8.952h1.334V7.657c0-1.219.61-3.143 3.18-3.143h2.344v2.534H13.77c-.266 0-.628.171-.628.762v1.142h2.343L15.219 12z"/></symbol><symbol viewBox="0 0 24 24" id="instagram" xmlns="http://www.w3.org/2000/svg"><path d="M17.028 0H6.972A6.98 6.98 0 000 6.972v10.056A6.98 6.98 0 006.972 24h10.056A6.98 6.98 0 0024 17.028V6.972A6.98 6.98 0 0017.028 0zm5.097 17.028a5.102 5.102 0 01-5.097 5.097H6.972a5.102 5.102 0 01-5.097-5.097V6.972a5.102 5.102 0 015.097-5.097h10.056a5.102 5.102 0 015.097 5.097v10.056z"/><path d="M12 5.531A6.476 6.476 0 005.531 12 6.476 6.476 0 0012 18.469 6.476 6.476 0 0018.469 12 6.476 6.476 0 0012 5.531zm0 11.063A4.599 4.599 0 017.406 12 4.599 4.599 0 0112 7.406 4.599 4.599 0 0116.594 12 4.599 4.599 0 0112 16.594zM18.563 6.375a.937.937 0 100-1.875.937.937 0 000 1.875z"/></symbol><symbol viewBox="0 0 24 24" id="plus" xmlns="http://www.w3.org/2000/svg"><path d="M0 11.2h24v1.6H0z"/><path d="M11.2 24V0h1.6v24z"/></symbol></svg>